<?xml version="1.0" encoding="utf-8"?><svg xmlns="http://www.w3.org/2000/svg" xmlns:xlink="http://www.w3.org/1999/xlink" width="2145" height="884" preserveAspectRatio="xMidYMid" viewBox="0 0 2145 884" style="z-index:1;margin-right:-2px;display:block;background-repeat-y:initial;background-repeat-x:initial;background-color:rgb(241, 242, 243);animation-play-state:paused" ><g transform="translate(1072.5,442) scale(1,1) translate(-1072.5,-442)" style="transform:matrix(1, 0, 0, 1, 0, 0);animation-play-state:paused" ><linearGradient id="lg-0.8800850206726532" x1="0" x2="1" y1="0" y2="0" style="animation-play-state:paused" ><stop stop-color="#ff727d" offset="0" style="animation-play-state:paused" ></stop>

  
<stop stop-color="#ffd391" offset="1" style="animation-play-state:paused" ></stop></linearGradient>
<path d="M 0 0 L 0 744.577 Q 214.5 693.354 429 643.113 T 858 681.238 T 1287 735.695 T 1716 649.267 T 2145 688.402 L 2145 0 Z" fill="url(#lg-0.8800850206726532)" opacity="0.4" style="opacity:0.4;animation-play-state:paused" ></path>
<path d="M 0 0 L 0 657.663 Q 214.5 676.238 429 646.088 T 858 624.96 T 1287 672.068 T 1716 692.08 T 2145 600.405 L 2145 0 Z" fill="url(#lg-0.8800850206726532)" opacity="0.4" style="opacity:0.4;animation-play-state:paused" ></path>
<path d="M 0 0 L 0 607.702 Q 214.5 727.156 429 697.044 T 858 623.598 T 1287 649.032 T 1716 583.789 T 2145 594.545 L 2145 0 Z" fill="url(#lg-0.8800850206726532)" opacity="0.4" style="opacity:0.4;animation-play-state:paused" ></path>
<path d="M 0 0 L 0 709.07 Q 214.5 674.742 429 641.425 T 858 719.068 T 1287 685.994 T 1716 750.507 T 2145 649.027 L 2145 0 Z" fill="url(#lg-0.8800850206726532)" opacity="0.4" style="opacity:0.4;animation-play-state:paused" ></path>
<path d="M 0 0 L 0 718.698 Q 214.5 653.861 429 627.937 T 858 732.743 T 1287 620.115 T 1716 692.825 T 2145 659.851 L 2145 0 Z" fill="url(#lg-0.8800850206726532)" opacity="0.4" style="opacity:0.4;animation-play-state:paused" ></path></g></svg>